name rise49.25peak52.1432fall72.8391.mot
datacolumns 19
datarows 32
range 10.89995400000000 10.95162300000000
endheader
time	ground_force1_vx	ground_force1_vy	ground_force1_vz	ground_force1_px	ground_force1_py	ground_force1_pz	ground_force2_vx	ground_force2_vy	ground_force2_vz	ground_force2_px	ground_force2_py	ground_force2_pz	ground_torque1_x	ground_torque1_y	ground_torque1_z	ground_torque2_x	ground_torque2_y	ground_torque2_z	
10.89995400000000	-8.24719300000000	41.36079100000000	-10.50951100000000	0.29801100000000	0.00000000000000	0.08943400000000	-60.43542000000000	796.30627700000002	-55.79554100000000	0.09925900000000	0.00000000000000	-0.09171800000000	0.00000000000000	-6.48803200000000	0.00000000000000	0.00000000000000	-20.01002800000000	0.00000000000000	
10.90162900000000	-9.06086200000000	48.30031000000000	-11.83888300000000	0.30293600000000	0.00000000000000	0.09018000000000	-61.35993600000000	793.89698799999996	-55.34902400000000	0.09826500000000	0.00000000000000	-0.09160100000000	0.00000000000000	-7.39491700000000	0.00000000000000	0.00000000000000	-20.00975100000000	0.00000000000000	
10.90328700000000	-9.72253700000000	55.28147600000000	-13.05470500000000	0.30755400000000	0.00000000000000	0.09087100000000	-62.29494900000000	791.37471400000004	-54.88441400000000	0.09727900000000	0.00000000000000	-0.09148100000000	0.00000000000000	-8.24935700000000	0.00000000000000	0.00000000000000	-20.01176700000000	0.00000000000000	
10.90496100000000	-10.20967300000000	62.21109200000000	-14.12933500000000	0.31190600000000	0.00000000000000	0.09151300000000	-63.23943900000000	788.73612800000001	-54.40162700000000	0.09630100000000	0.00000000000000	-0.09135700000000	0.00000000000000	-9.03258900000000	0.00000000000000	0.00000000000000	-20.01595500000000	0.00000000000000	
10.90662200000000	-10.50873400000000	69.02001300000001	-15.04433800000000	0.31602700000000	0.00000000000000	0.09211400000000	-64.19229400000000	785.97782199999995	-53.90058800000000	0.09533200000000	0.00000000000000	-0.09122900000000	0.00000000000000	-9.73123800000000	0.00000000000000	0.00000000000000	-20.02217500000000	0.00000000000000	
10.90829400000000	-10.61507900000000	75.66512899999999	-15.79062900000000	0.31994300000000	0.00000000000000	0.09267800000000	-65.15231100000000	783.09631899999999	-53.38123600000000	0.09437200000000	0.00000000000000	-0.09109700000000	0.00000000000000	-10.33758100000000	0.00000000000000	0.00000000000000	-20.03026000000000	0.00000000000000	
10.90995800000000	-10.53214100000000	82.12887400000000	-16.36782500000000	0.32367800000000	0.00000000000000	0.09321000000000	-66.11819199999999	780.08808599999998	-52.84352000000000	0.09342400000000	0.00000000000000	-0.09096200000000	0.00000000000000	-10.84932000000000	0.00000000000000	0.00000000000000	-20.04002700000000	0.00000000000000	
10.91162700000000	-10.27008200000000	88.41672300000000	-16.78299400000000	0.32725000000000	0.00000000000000	0.09371300000000	-67.08854599999999	776.94954199999995	-52.28740900000000	0.09248700000000	0.00000000000000	-0.09082300000000	0.00000000000000	-11.26893900000000	0.00000000000000	0.00000000000000	-20.05126800000000	0.00000000000000	
10.91329600000000	-9.84413600000000	94.55321900000000	-17.04901000000000	0.33067400000000	0.00000000000000	0.09419200000000	-68.06189300000000	773.67707600000006	-51.71288600000000	0.09156300000000	0.00000000000000	-0.09068000000000	0.00000000000000	-11.60277700000000	0.00000000000000	0.00000000000000	-20.06375600000000	0.00000000000000	
10.91495500000000	-9.27281900000000	100.57712800000000	-17.18271700000000	0.33396200000000	0.00000000000000	0.09464700000000	-69.03665900000000	770.26705600000003	-51.11995400000000	0.09065200000000	0.00000000000000	-0.09053300000000	0.00000000000000	-11.85994600000000	0.00000000000000	0.00000000000000	-20.07724200000000	0.00000000000000	
10.91662700000000	-8.57618300000000	106.53626700000000	-17.20308900000000	0.33712600000000	0.00000000000000	0.09508200000000	-70.01118300000000	766.71584800000005	-50.50863900000000	0.08975500000000	0.00000000000000	-0.09038300000000	0.00000000000000	-12.05120200000000	0.00000000000000	0.00000000000000	-20.09145800000000	0.00000000000000	
10.91829400000000	-7.77424700000000	112.48248100000001	-17.12953500000000	0.34017300000000	0.00000000000000	0.09549800000000	-70.98371800000000	763.01982599999997	-49.87898800000000	0.08887300000000	0.00000000000000	-0.09022800000000	0.00000000000000	-12.18787700000000	0.00000000000000	0.00000000000000	-20.10611400000000	0.00000000000000	
10.91995800000000	-6.88570200000000	118.46714900000001	-16.98045700000000	0.34311200000000	0.00000000000000	0.09589700000000	-71.95243200000000	759.17539199999999	-49.23107700000000	0.08800600000000	0.00000000000000	-0.09007000000000	0.00000000000000	-12.28093700000000	0.00000000000000	0.00000000000000	-20.12090500000000	0.00000000000000	
10.92162200000000	-5.92693400000000	124.53748600000000	-16.77213600000000	0.34594800000000	0.00000000000000	0.09628100000000	-72.91540999999999	755.17898800000000	-48.56500500000000	0.08715600000000	0.00000000000000	-0.08990900000000	0.00000000000000	-12.34023800000000	0.00000000000000	0.00000000000000	-20.13550400000000	0.00000000000000	
10.92328700000000	-4.91140400000000	130.73377199999999	-16.51797800000000	0.34868600000000	0.00000000000000	0.09665000000000	-73.87066100000000	751.02711699999998	-47.88090400000000	0.08632200000000	0.00000000000000	-0.08974300000000	0.00000000000000	-12.37398300000000	0.00000000000000	0.00000000000000	-20.14956900000000	0.00000000000000	
10.92496000000000	-3.84934500000000	137.08756800000000	-16.22809600000000	0.35133000000000	0.00000000000000	0.09700700000000	-74.81611700000001	746.71635600000002	-47.17893500000000	0.08550500000000	0.00000000000000	-0.08957400000000	0.00000000000000	-12.38840700000000	0.00000000000000	0.00000000000000	-20.16274300000000	0.00000000000000	
10.92662000000000	-2.74777100000000	143.62087600000001	-15.90922800000000	0.35388400000000	0.00000000000000	0.09735100000000	-75.74964199999999	742.24338000000000	-46.45929300000000	0.08470500000000	0.00000000000000	-0.08940100000000	0.00000000000000	-12.38766300000000	0.00000000000000	0.00000000000000	-20.17465000000000	0.00000000000000	
10.92828700000000	-1.61070900000000	150.34612899999999	-15.56491200000000	0.35634900000000	0.00000000000000	0.09768400000000	-76.66903300000000	737.60497499999997	-45.72220800000000	0.08392300000000	0.00000000000000	-0.08922500000000	0.00000000000000	-12.37388500000000	0.00000000000000	0.00000000000000	-20.18490500000000	0.00000000000000	
10.92997100000000	-0.43962600000000	157.26686599999999	-15.19587200000000	0.35873000000000	0.00000000000000	0.09800700000000	-77.57202500000000	732.79805999999996	-44.96794500000000	0.08315900000000	0.00000000000000	-0.08904500000000	0.00000000000000	-12.34739300000000	0.00000000000000	0.00000000000000	-20.19310600000000	0.00000000000000	
10.93162200000000	0.76603500000000	164.37891200000001	-14.80054500000000	0.36102600000000	0.00000000000000	0.09831900000000	-78.45630000000000	727.81970899999999	-44.19680600000000	0.08241300000000	0.00000000000000	-0.08886200000000	0.00000000000000	-12.30700200000000	0.00000000000000	0.00000000000000	-20.19884300000000	0.00000000000000	
10.93329400000000	2.00827200000000	171.67188300000001	-14.37567900000000	0.36324000000000	0.00000000000000	0.09862300000000	-79.31948700000000	722.66716599999995	-43.40913300000000	0.08168600000000	0.00000000000000	-0.08867500000000	0.00000000000000	-12.25038900000000	0.00000000000000	0.00000000000000	-20.20169400000000	0.00000000000000	
10.93495800000000	3.28992600000000	179.13084400000000	-13.91695100000000	0.36537200000000	0.00000000000000	0.09891800000000	-80.15917300000000	717.33786999999995	-42.60530700000000	0.08097600000000	0.00000000000000	-0.08848500000000	0.00000000000000	-12.17448200000000	0.00000000000000	0.00000000000000	-20.20123300000000	0.00000000000000	
10.93662600000000	4.61414500000000	186.73796700000000	-13.41955100000000	0.36742300000000	0.00000000000000	0.09920500000000	-80.97290800000000	711.82947500000000	-41.78575000000000	0.08028500000000	0.00000000000000	-0.08829200000000	0.00000000000000	-12.07583700000000	0.00000000000000	0.00000000000000	-20.19702100000000	0.00000000000000	
10.93829400000000	5.98390600000000	194.47406899999999	-12.87870200000000	0.36939400000000	0.00000000000000	0.09948400000000	-81.75820899999999	706.13986699999998	-40.95092500000000	0.07961100000000	0.00000000000000	-0.08809500000000	0.00000000000000	-11.95098100000000	0.00000000000000	0.00000000000000	-20.18862000000000	0.00000000000000	
10.93995900000000	7.40165000000000	202.31994000000000	-12.29007500000000	0.37128500000000	0.00000000000000	0.09975500000000	-82.51257099999999	700.26718700000004	-40.10133700000000	0.07895600000000	0.00000000000000	-0.08789600000000	0.00000000000000	-11.79669500000000	0.00000000000000	0.00000000000000	-20.17558600000000	0.00000000000000	
10.94162600000000	8.86901200000000	210.25740700000000	-11.65011300000000	0.37309500000000	0.00000000000000	0.10002000000000	-83.23347200000001	694.20984499999997	-39.23753100000000	0.07831700000000	0.00000000000000	-0.08769300000000	0.00000000000000	-11.61023800000000	0.00000000000000	0.00000000000000	-20.15747300000000	0.00000000000000	
10.94329200000000	10.38665800000000	218.27010000000001	-10.95622800000000	0.37482600000000	0.00000000000000	0.10027700000000	-83.91838100000000	687.96654200000000	-38.36009800000000	0.07769600000000	0.00000000000000	-0.08748700000000	0.00000000000000	-11.38949200000000	0.00000000000000	0.00000000000000	-20.13383600000000	0.00000000000000	
10.94495600000000	11.95422600000000	226.34393299999999	-10.20691100000000	0.37647600000000	0.00000000000000	0.10052900000000	-84.56476600000001	681.53628300000003	-37.46967000000000	0.07709100000000	0.00000000000000	-0.08727900000000	0.00000000000000	-11.13304800000000	0.00000000000000	0.00000000000000	-20.10423300000000	0.00000000000000	
10.94663100000000	13.57033800000000	234.46731399999999	-9.40173700000000	0.37804600000000	0.00000000000000	0.10077300000000	-85.17010200000000	674.91838800000005	-36.56692000000000	0.07650200000000	0.00000000000000	-0.08706800000000	0.00000000000000	-10.84022600000000	0.00000000000000	0.00000000000000	-20.06822500000000	0.00000000000000	
10.94828600000000	15.23269200000000	242.63113200000001	-8.54131000000000	0.37953500000000	0.00000000000000	0.10101200000000	-85.73188100000000	668.11250500000006	-35.65256600000000	0.07592800000000	0.00000000000000	-0.08685400000000	0.00000000000000	-10.51104300000000	0.00000000000000	0.00000000000000	-20.02537800000000	0.00000000000000	
10.94995900000000	16.93818900000000	250.82855200000000	-7.62713800000000	0.38094300000000	0.00000000000000	0.10124500000000	-86.24762000000000	661.11861999999996	-34.72736700000000	0.07536900000000	0.00000000000000	-0.08663700000000	0.00000000000000	-10.14615100000000	0.00000000000000	0.00000000000000	-19.97526900000000	0.00000000000000	
10.95162300000000	18.68309600000000	259.05469799999997	-6.66148500000000	0.38226900000000	0.00000000000000	0.10147200000000	-86.71486700000000	653.93705899999998	-33.79212500000000	0.07482300000000	0.00000000000000	-0.08641900000000	0.00000000000000	-9.74673600000000	0.00000000000000	0.00000000000000	-19.91748100000000	0.00000000000000	
